<svg xmlns="http://www.w3.org/2000/svg" width="1000" height="1000" xml:space="preserve"><rect width="100%" height="100%" fill="#191919"/><g transform="translate(502.256 500.07)" id="262373"><path style="stroke:#fff;stroke-width:2px;stroke-dasharray:none;stroke-linecap:round;stroke-dashoffset:0;stroke-linejoin:round;stroke-miterlimit:4;is-custom-font:none;font-file-url:none;fill:none;fill-rule:nonzero;opacity:1" transform="translate(-485.093 -485.093) scale(40.4244)" d="M19.82 2H4.18A2.18 2.18 0 0 0 2 4.18v15.64A2.18 2.18 0 0 0 4.18 22h15.64A2.18 2.18 0 0 0 22 19.82V4.18A2.18 2.18 0 0 0 19.82 2Z" stroke-linecap="round" id="789600"/><path style="stroke:#fff;stroke-width:2px;stroke-dasharray:none;stroke-linecap:round;stroke-dashoffset:0;stroke-linejoin:round;stroke-miterlimit:4;is-custom-font:none;font-file-url:none;fill:none;fill-rule:nonzero;opacity:1" transform="translate(-485.093 -485.093) scale(40.4244)" d="M7 2v20" stroke-linecap="round" id="769079"/><path style="stroke:#fff;stroke-width:2px;stroke-dasharray:none;stroke-linecap:round;stroke-dashoffset:0;stroke-linejoin:round;stroke-miterlimit:4;is-custom-font:none;font-file-url:none;fill:none;fill-rule:nonzero;opacity:1" transform="translate(-485.093 -485.093) scale(40.4244)" d="M17 2v20" stroke-linecap="round" id="756445"/><path style="stroke:#fff;stroke-width:2px;stroke-dasharray:none;stroke-linecap:round;stroke-dashoffset:0;stroke-linejoin:round;stroke-miterlimit:4;is-custom-font:none;font-file-url:none;fill:none;fill-rule:nonzero;opacity:1" transform="translate(-485.093 -485.093) scale(40.4244)" d="M2 12h20" stroke-linecap="round" id="711942"/><path style="stroke:#fff;stroke-width:2px;stroke-dasharray:none;stroke-linecap:round;stroke-dashoffset:0;stroke-linejoin:round;stroke-miterlimit:4;is-custom-font:none;font-file-url:none;fill:none;fill-rule:nonzero;opacity:1" transform="translate(-485.093 -485.093) scale(40.4244)" d="M2 7h5" stroke-linecap="round" id="98415"/><path style="stroke:#fff;stroke-width:2px;stroke-dasharray:none;stroke-linecap:round;stroke-dashoffset:0;stroke-linejoin:round;stroke-miterlimit:4;is-custom-font:none;font-file-url:none;fill:none;fill-rule:nonzero;opacity:1" transform="translate(-485.093 -485.093) scale(40.4244)" d="M2 17h5" stroke-linecap="round" id="581347"/><path style="stroke:#fff;stroke-width:2px;stroke-dasharray:none;stroke-linecap:round;stroke-dashoffset:0;stroke-linejoin:round;stroke-miterlimit:4;is-custom-font:none;font-file-url:none;fill:none;fill-rule:nonzero;opacity:1" transform="translate(-485.093 -485.093) scale(40.4244)" d="M17 17h5" stroke-linecap="round" id="775339"/><path style="stroke:#fff;stroke-width:2px;stroke-dasharray:none;stroke-linecap:round;stroke-dashoffset:0;stroke-linejoin:round;stroke-miterlimit:4;is-custom-font:none;font-file-url:none;fill:none;fill-rule:nonzero;opacity:1" transform="translate(-485.093 -485.093) scale(40.4244)" d="M17 7h5" stroke-linecap="round" id="325660"/></g></svg>